<?xml version="1.0" encoding="UTF-8"?>
<svg id="Layer_1" data-name="Layer 1" xmlns="http://www.w3.org/2000/svg" viewBox="0 0 17 17">
  <defs>
    <style>
      .cls-1 {
        fill: #231f20;
      }

      .cls-1, .cls-2 {
        stroke-width: 0px;
      }

      .cls-2 {
        fill: #fff;
      }
    </style>
  </defs>
  <circle class="cls-1" cx="8.5" cy="8.5" r="8.45"/>
  <g>
    <path class="cls-2" d="M3.29,11.5c-.3-.32-.45-.77-.45-1.35v-3.82c0-.58.15-1.03.45-1.35.3-.32.73-.48,1.29-.48s.99.16,1.29.48c.3.32.45.77.45,1.35v3.82c0,.58-.15,1.03-.45,1.35-.3.32-.73.48-1.29.48s-.99-.16-1.29-.48ZM5.17,10.22v-3.97c0-.48-.2-.72-.59-.72s-.59.24-.59.72v3.97c0,.48.2.72.59.72s.59-.24.59-.72Z"/>
    <path class="cls-2" d="M7.31,11.51c-.28-.31-.43-.77-.43-1.35v-.42h1.08v.5c0,.47.2.71.59.71.19,0,.34-.06.44-.17.1-.11.15-.3.15-.55,0-.3-.07-.57-.21-.81-.14-.23-.39-.51-.77-.84-.47-.42-.8-.79-.99-1.13s-.28-.71-.28-1.14c0-.57.15-1.02.44-1.33.29-.31.71-.47,1.27-.47s.96.16,1.24.47c.28.32.42.77.42,1.36v.3h-1.08v-.37c0-.25-.05-.43-.15-.55-.1-.11-.24-.17-.43-.17-.38,0-.57.23-.57.7,0,.26.07.51.21.74.14.23.4.51.77.83.48.42.81.79.99,1.13s.27.74.27,1.19c0,.6-.15,1.05-.44,1.37-.29.32-.72.48-1.28.48s-.97-.16-1.26-.47Z"/>
    <path class="cls-2" d="M11.3,11.51c-.29-.31-.43-.75-.43-1.32v-3.9c0-.57.14-1.01.43-1.32.29-.31.7-.47,1.25-.47s.96.16,1.25.47c.29.31.43.75.43,1.32v.77h-1.08v-.84c0-.45-.19-.68-.57-.68s-.57.23-.57.68v4.06c0,.44.19.67.57.67s.57-.22.57-.67v-1.11h1.08v1.03c0,.57-.14,1.01-.43,1.32-.29.31-.71.47-1.25.47s-.96-.16-1.25-.47Z"/>
  </g>
</svg>